<?xml version="1.0" encoding="UTF-8" standalone="no"?>
<!-- Created with Inkscape (http://www.inkscape.org/) -->
<svg
   xmlns:dc="http://purl.org/dc/elements/1.1/"
   xmlns:cc="http://web.resource.org/cc/"
   xmlns:rdf="http://www.w3.org/1999/02/22-rdf-syntax-ns#"
   xmlns:svg="http://www.w3.org/2000/svg"
   xmlns="http://www.w3.org/2000/svg"
   xmlns:xlink="http://www.w3.org/1999/xlink"
   xmlns:sodipodi="http://inkscape.sourceforge.net/DTD/sodipodi-0.dtd"
   xmlns:inkscape="http://www.inkscape.org/namespaces/inkscape"
   width="744.09448819"
   height="1052.3622047"
   id="svg2862"
   sodipodi:version="0.32"
   inkscape:version="0.43"
   sodipodi:docbase="/home/mario/Desktop/gz"
   sodipodi:docname="hitflames1.svg">
  <defs
     id="defs2864">
    <linearGradient
       id="linearGradient2806">
      <stop
         style="stop-color:white;stop-opacity:1;"
         offset="0"
         id="stop2808" />
      <stop
         id="stop2816"
         offset="0.60000002"
         style="stop-color:white;stop-opacity:0.49803922;" />
      <stop
         style="stop-color:white;stop-opacity:0;"
         offset="1"
         id="stop2810" />
    </linearGradient>
    <linearGradient
       id="linearGradient2781">
      <stop
         style="stop-color:#3287ff;stop-opacity:1;"
         offset="0"
         id="stop2783" />
      <stop
         id="stop2792"
         offset="0.31914893"
         style="stop-color:white;stop-opacity:0.49803922;" />
      <stop
         style="stop-color:white;stop-opacity:0;"
         offset="1"
         id="stop2785" />
    </linearGradient>
    <linearGradient
       id="linearGradient2872">
      <stop
         style="stop-color:white;stop-opacity:1;"
         offset="0"
         id="stop2874" />
      <stop
         style="stop-color:white;stop-opacity:0.18039216;"
         offset="0.73113859"
         id="stop2798" />
      <stop
         style="stop-color:white;stop-opacity:0;"
         offset="1"
         id="stop2876" />
    </linearGradient>
    <radialGradient
       inkscape:collect="always"
       xlink:href="#linearGradient2872"
       id="radialGradient2907"
       gradientUnits="userSpaceOnUse"
       gradientTransform="matrix(0.412456,0,0,0.39535,2.945045,-5.298486)"
       cx="0.71427917"
       cy="13.790756"
       fx="0.71427917"
       fy="13.790756"
       r="155" />
    <radialGradient
       inkscape:collect="always"
       xlink:href="#linearGradient2781"
       id="radialGradient2789"
       cx="-39.469234"
       cy="-36.71273"
       fx="-39.469234"
       fy="-36.71273"
       r="53.141541"
       gradientTransform="matrix(1,0,0,1.012237,0,0.449269)"
       gradientUnits="userSpaceOnUse" />
    <radialGradient
       inkscape:collect="always"
       xlink:href="#linearGradient2872"
       id="radialGradient2794"
       gradientUnits="userSpaceOnUse"
       gradientTransform="matrix(0.412456,0,0,0.39535,2.945045,-5.298486)"
       cx="0.71427917"
       cy="13.790756"
       fx="0.71427917"
       fy="13.790756"
       r="155" />
    <radialGradient
       inkscape:collect="always"
       xlink:href="#linearGradient2806"
       id="radialGradient2814"
       cx="-5.3935223"
       cy="-8.1289959"
       fx="-5.3935223"
       fy="-8.1289959"
       r="29.265121"
       gradientTransform="matrix(1,0,0,1.010271,0,8.349151e-2)"
       gradientUnits="userSpaceOnUse" />
  </defs>
  <sodipodi:namedview
     id="base"
     pagecolor="black"
     bordercolor="#666666"
     borderopacity="1.0"
     gridtolerance="10000"
     guidetolerance="10"
     objecttolerance="10"
     inkscape:pageopacity="0"
     inkscape:pageshadow="2"
     inkscape:zoom="1.4"
     inkscape:cx="147.80872"
     inkscape:cy="960.05643"
     inkscape:document-units="px"
     inkscape:current-layer="layer1"
     inkscape:window-width="1270"
     inkscape:window-height="970"
     inkscape:window-x="0"
     inkscape:window-y="0" />
  <metadata
     id="metadata2867">
    <rdf:RDF>
      <cc:Work
         rdf:about="">
        <dc:format>image/svg+xml</dc:format>
        <dc:type
           rdf:resource="http://purl.org/dc/dcmitype/StillImage" />
      </cc:Work>
    </rdf:RDF>
  </metadata>
  <g
     inkscape:label="Layer 1"
     inkscape:groupmode="layer"
     id="layer1">
    <path
       style="fill:url(#radialGradient2794);fill-opacity:1;stroke:none;stroke-width:7.8210001;stroke-miterlimit:4;stroke-dasharray:none;stroke-opacity:1"
       d="M -60.691125,-61.125583 L 67.170448,-61.125583 L 67.170448,61.432968 L -60.691125,61.432968 L -60.691125,-61.125583 z "
       id="rect2870" />
    <path
       sodipodi:type="star"
       style="opacity:1;color:black;fill:url(#radialGradient2814);fill-opacity:1;fill-rule:nonzero;stroke:white;stroke-width:6.00899982;stroke-linecap:butt;stroke-linejoin:round;marker:none;marker-start:none;marker-mid:none;marker-end:none;stroke-miterlimit:4;stroke-dasharray:none;stroke-dashoffset:0;stroke-opacity:0.15642458;visibility:visible;display:inline;overflow:visible"
       id="path2804"
       sodipodi:sides="5"
       sodipodi:cx="-3.5714285"
       sodipodi:cy="-6.9235244"
       sodipodi:r1="31.331017"
       sodipodi:r2="12.219097"
       sodipodi:arg1="0.75315128"
       sodipodi:arg2="1.3814698"
       inkscape:flatsided="false"
       inkscape:rounded="1.0408341e-17"
       inkscape:randomized="0"
       d="M 19.285714,14.505046 L -1.271825,5.0772322 L -16.887965,21.436702 L -14.27421,-1.0280337 L -34.658643,-10.824511 L -12.485715,-15.280667 L -9.4678472,-37.694693 L 1.6220209,-17.984013 L 23.871599,-22.040166 L 8.5525858,-5.4021396 L 19.285714,14.505046 z "
       transform="matrix(1.535226,0,0,1.535226,7.172468,12.92228)" />
    <path
       id="path1436"
       d="M -120.42857,-2.5664228 L -120.42857,-180.0665 L 7.2125471,-180.0665 L 134.85217,-180.0665 L 134.85217,-2.5664228 L 134.85217,174.93357 L 7.2125471,174.93357 L -120.42857,174.93357 L -120.42857,-2.5664228 z M -12.835263,41.362782 C -0.047552857,34.83872 9.0518971,34.366538 25.857467,39.355657 L 40.924237,43.828583 L 50.493807,38.84625 C 63.364267,32.145284 65.981927,27.148708 64.179717,12.725624 C 62.880657,2.3270252 62.052987,0.81599219 55.153947,-3.7497608 C 50.975597,-6.5144358 41.975537,-10.466835 35.152707,-12.532509 C 28.329917,-14.59835 21.046867,-17.827451 18.968377,-19.708538 C 16.890087,-21.589461 15.189317,-22.231021 15.189317,-21.133724 C 15.189317,-17.986238 21.616207,-12.979626 30.220447,-9.4242018 C 39.512827,-5.5842748 45.105377,-1.0185228 45.105377,2.7285552 C 45.105377,7.4697979 39.593297,5.6087729 30.612017,-2.1643258 C 25.797077,-6.3304728 17.807237,-11.287576 12.853607,-13.179255 C 0.58379714,-17.865252 -1.6866029,-22.749863 -0.0053928571,-40.843919 L 1.3428971,-55.350208 L -3.8544829,-48.403512 C -12.148813,-37.318525 -16.721003,-27.18149 -16.721003,-19.87638 C -16.721003,-12.303132 -9.7656429,-0.69549784 -0.027752857,7.9832239 L 6.2145071,13.546909 L -2.7600529,12.376804 C -7.6959229,11.733108 -17.983853,8.0918359 -25.622053,4.2850659 L -39.509503,-2.6367838 L -45.342303,3.1963769 C -49.734023,7.5877639 -51.404853,11.420391 -52.105053,18.706727 C -52.926453,27.252668 -52.391833,29.027504 -47.542813,33.876855 C -43.047983,38.371392 -29.151683,44.540457 -22.125943,45.159784 C -21.260093,45.236324 -17.078683,43.527524 -12.835263,41.362782 z M -33.873133,32.474486 C -40.832123,29.450267 -42.647863,26.085981 -42.647863,16.217052 C -42.647863,8.3489879 -39.664863,7.1172389 -37.875143,14.246392 C -35.827103,22.405405 -31.231493,25.355091 -20.567033,25.355091 C -8.8321729,25.355091 -8.0056229,27.489219 -18.216713,31.426178 C -22.330113,33.012037 -26.143883,34.501337 -26.692783,34.735848 C -27.241063,34.970027 -30.471913,33.952529 -33.873133,32.474486 z M 27.779977,27.738793 C 30.727397,24.662167 33.139067,21.563087 33.139067,20.851792 C 33.139067,20.140488 28.876097,17.679561 23.665747,15.38313 C 9.0086371,8.9235519 -0.56375286,1.4807522 -5.8774129,-7.5876028 C -10.541593,-15.545656 -12.107943,-26.590422 -9.5267629,-33.31622 C -7.4670929,-38.685347 -4.7549829,-36.797844 -4.7468629,-29.989132 C -4.7313929,-16.320345 8.8475471,-2.9274908 31.144417,5.4109589 C 44.354157,10.351232 48.502377,15.018278 45.188167,21.211498 C 41.957697,27.247802 33.083457,33.332347 27.510857,33.332347 L 22.420887,33.332347 L 27.779977,27.738793 z M -25.023073,-11.809341 C -28.966563,-20.726113 -29.106133,-28.729353 -25.509283,-39.78662 C -24.810123,-41.938276 -27.277193,-40.375436 -31.488233,-36.001742 C -42.311753,-24.757444 -41.354143,-14.247011 -28.741783,-5.8495638 C -21.190143,-0.82148784 -20.588393,-1.7854358 -25.023073,-11.809341 z M 9.0357571,-65.389522 C 8.9261471,-69.378018 8.9261471,-69.378018 7.2125471,-65.389522 C 6.2698371,-63.195673 5.4488471,-60.054497 5.3881971,-58.408773 C 5.2908071,-55.749832 5.4931671,-55.749832 7.2125471,-58.408773 C 8.2749971,-60.054497 9.0958971,-63.195673 9.0357571,-65.389522 z "
       style="fill:#000000" />
  </g>
</svg>
