<?xml version="1.0" encoding="UTF-8" standalone="no"?>
<!-- Created with Inkscape (http://www.inkscape.org/) -->
<svg
   xmlns:dc="http://purl.org/dc/elements/1.1/"
   xmlns:cc="http://web.resource.org/cc/"
   xmlns:rdf="http://www.w3.org/1999/02/22-rdf-syntax-ns#"
   xmlns:svg="http://www.w3.org/2000/svg"
   xmlns="http://www.w3.org/2000/svg"
   xmlns:xlink="http://www.w3.org/1999/xlink"
   xmlns:sodipodi="http://sodipodi.sourceforge.net/DTD/sodipodi-0.dtd"
   xmlns:inkscape="http://www.inkscape.org/namespaces/inkscape"
   width="744.09448819"
   height="1052.3622047"
   id="svg2862"
   sodipodi:version="0.32"
   inkscape:version="0.45.1"
   sodipodi:docbase="C:\Documents and Settings\Pentium1\Desktop\gz"
   sodipodi:docname="hitglow.svg"
   inkscape:output_extension="org.inkscape.output.svg.inkscape">
  <defs
     id="defs2864">
    <linearGradient
       id="linearGradient2806">
      <stop
         style="stop-color:white;stop-opacity:1;"
         offset="0"
         id="stop2808" />
      <stop
         id="stop2816"
         offset="0.60000002"
         style="stop-color:white;stop-opacity:0.49803922;" />
      <stop
         style="stop-color:white;stop-opacity:0;"
         offset="1"
         id="stop2810" />
    </linearGradient>
    <linearGradient
       id="linearGradient2781">
      <stop
         style="stop-color:#3287ff;stop-opacity:1;"
         offset="0"
         id="stop2783" />
      <stop
         id="stop2792"
         offset="0.31914893"
         style="stop-color:white;stop-opacity:0.49803922;" />
      <stop
         style="stop-color:white;stop-opacity:0;"
         offset="1"
         id="stop2785" />
    </linearGradient>
    <linearGradient
       id="linearGradient2872">
      <stop
         style="stop-color:white;stop-opacity:1;"
         offset="0"
         id="stop2874" />
      <stop
         style="stop-color:white;stop-opacity:0.18039216;"
         offset="0.73113859"
         id="stop2798" />
      <stop
         style="stop-color:white;stop-opacity:0;"
         offset="1"
         id="stop2876" />
    </linearGradient>
    <radialGradient
       inkscape:collect="always"
       xlink:href="#linearGradient2872"
       id="radialGradient2907"
       gradientUnits="userSpaceOnUse"
       gradientTransform="matrix(0.412456,0,0,0.39535,2.945045,-5.298486)"
       cx="0.71427917"
       cy="13.790756"
       fx="0.71427917"
       fy="13.790756"
       r="155" />
    <radialGradient
       inkscape:collect="always"
       xlink:href="#linearGradient2781"
       id="radialGradient2789"
       cx="-39.469234"
       cy="-36.71273"
       fx="-39.469234"
       fy="-36.71273"
       r="53.141541"
       gradientTransform="matrix(1,0,0,1.012237,0,0.449269)"
       gradientUnits="userSpaceOnUse" />
  </defs>
  <sodipodi:namedview
     id="base"
     pagecolor="black"
     bordercolor="#666666"
     borderopacity="1.0"
     gridtolerance="10000"
     guidetolerance="10"
     objecttolerance="10"
     inkscape:pageopacity="0"
     inkscape:pageshadow="2"
     inkscape:zoom="1.979899"
     inkscape:cx="136.89469"
     inkscape:cy="988.36086"
     inkscape:document-units="px"
     inkscape:current-layer="layer1"
     inkscape:window-width="1270"
     inkscape:window-height="995"
     inkscape:window-x="1"
     inkscape:window-y="1" />
  <metadata
     id="metadata2867">
    <rdf:RDF>
      <cc:Work
         rdf:about="">
        <dc:format>image/svg+xml</dc:format>
        <dc:type
           rdf:resource="http://purl.org/dc/dcmitype/StillImage" />
      </cc:Work>
    </rdf:RDF>
  </metadata>
  <g
     inkscape:label="Layer 1"
     inkscape:groupmode="layer"
     id="layer1">
    <g
       transform="matrix(1.3156727,0,0,1.3156727,-38.565995,-26.215413)"
       id="g2323">
      <path
         id="path2339"
         d="M 26.488656,48.619965 C 25.440239,44.792741 24.05635,41.661376 23.413346,41.661376 C 22.770342,41.661376 20.628746,42.336376 18.654243,43.161376 C 16.67974,43.986376 14.817203,44.661376 14.515273,44.661376 C 14.213342,44.661376 15.098889,42.426336 16.483154,39.69462 C 17.867419,36.962904 19,34.359927 19,33.910227 C 19,33.460527 17.611801,32.272562 15.915114,31.270304 L 12.830228,29.448017 L 15.414398,26.750725 L 17.998568,24.053433 L 14.803985,19.709476 L 11.609402,15.365518 L 15.554701,16.081722 C 17.724616,16.475634 20.48233,17.033414 21.682955,17.321232 C 23.462306,17.747784 24.26298,17.066217 26.013519,13.634876 L 28.161128,9.425214 L 31.510178,12.671241 L 34.859228,15.917268 L 37.679614,13.690292 L 40.5,11.463317 L 40.807498,15.562346 C 40.976622,17.816813 41.29031,19.661376 41.504583,19.661376 C 41.718856,19.661376 43.942982,18.572012 46.447085,17.240568 C 48.951188,15.909123 51,15.024083 51,15.273812 C 51,15.52354 49.844745,18.007649 48.432767,20.794054 C 47.020789,23.580458 46.07,26.064709 46.319902,26.314612 C 46.569805,26.564514 48.876982,27.567154 51.446962,28.542701 L 56.119652,30.316421 L 52.059826,33.003087 C 49.826922,34.480753 48.001682,36.020868 48.003738,36.425564 C 48.005794,36.830261 48.905794,38.634752 50.003738,40.435546 C 51.101682,42.236339 52,43.823231 52,43.961972 C 52,44.100712 50.276404,44.049856 48.169788,43.848958 C 44.417765,43.491145 44.30229,43.581318 42.513129,48.266171 L 40.686682,53.048652 L 37.965574,49.789204 L 35.244465,46.529755 L 33.110152,49.983147 C 29.158778,56.376604 28.580893,56.257633 26.488656,48.619965 z M 31.022236,49.911376 C 31.034466,49.498876 31.934466,48.036376 33.022236,46.661376 L 35,44.161376 L 36.944989,46.661376 L 38.889978,49.161376 L 40.458409,45.411376 C 41.778513,42.255106 42.503765,41.661376 45.0391,41.661376 L 48.05136,41.661376 L 46.52568,38.711036 C 44.558692,34.9073 44.477841,35.188386 48.220542,32.818676 L 51.441083,30.779574 L 48.655442,29.720475 C 47.123339,29.137971 45.449096,28.661376 44.9349,28.661376 C 43.636013,28.661376 43.761196,27.477163 45.5,23.315619 C 47.511189,18.502167 47.453433,18.375536 44.04966,20.135696 C 39.940421,22.260666 39,22.057795 39,19.046366 C 39,16.531772 38.909807,16.490453 36.651234,17.970327 C 34.455596,19.408964 34.139551,19.346382 31.803587,17.010417 L 29.304706,14.511537 L 28.000798,17.65945 C 26.721302,20.748427 26.60372,20.794549 21.720563,20.122944 C 16.463654,19.399934 16.265635,19.786077 19.788398,23.890719 C 21.119731,25.441958 21.040213,25.808228 19.016305,27.44709 L 16.760022,29.274117 L 19.359476,30.977344 L 21.95893,32.680572 L 19.983203,35.920974 C 16.988217,40.83307 17.361083,41.826279 21.544018,40.078537 C 23.493229,39.264105 25.442024,38.816528 25.874674,39.08392 C 26.307324,39.351313 27.219788,42.065628 27.902372,45.115732 C 28.584955,48.165836 29.56116,50.661376 30.071716,50.661376 C 30.582272,50.661376 31.010006,50.323876 31.022236,49.911376 z "
         style="fill:#e1e1e1" />
      <path
         id="path2337"
         d="M 38.872445,51.911376 C 37.628574,50.32532 37.663944,50.28995 39.25,51.533821 C 40.915748,52.84019 41.445479,53.661376 40.622445,53.661376 C 40.414789,53.661376 39.627289,52.873876 38.872445,51.911376 z M 27.902372,45.115732 C 27.219788,42.065628 26.307324,39.351313 25.874674,39.08392 C 25.442024,38.816528 23.493229,39.264105 21.544018,40.078537 C 17.361083,41.826279 16.988217,40.83307 19.983203,35.920974 L 21.95893,32.680572 L 19.359476,30.977344 L 16.760022,29.274117 L 19.016305,27.44709 C 21.040213,25.808228 21.119731,25.441958 19.788398,23.890719 C 16.265635,19.786077 16.463654,19.399934 21.720563,20.122944 C 26.60372,20.794549 26.721302,20.748427 28.000798,17.65945 L 29.304706,14.511537 L 31.803587,17.010417 C 34.139551,19.346382 34.455596,19.408964 36.651234,17.970327 C 38.909807,16.490453 39,16.531772 39,19.046366 C 39,22.057795 39.940421,22.260666 44.04966,20.135696 C 47.453433,18.375536 47.511189,18.502167 45.5,23.315619 C 43.761196,27.477163 43.636013,28.661376 44.9349,28.661376 C 45.449096,28.661376 47.123339,29.137971 48.655442,29.720475 L 51.441083,30.779574 L 48.220542,32.818676 C 44.477841,35.188386 44.558692,34.9073 46.52568,38.711036 L 48.05136,41.661376 L 45.0391,41.661376 C 42.576509,41.661376 41.775236,42.26355 40.648012,44.961376 C 39.595243,47.481007 38.661441,48.261376 36.699182,48.261376 C 35.285681,48.261376 34.356208,47.894036 34.633688,47.445064 C 34.911168,46.996093 35.615482,46.923731 36.19883,47.28426 C 36.796849,47.653856 37.066576,47.361105 36.817232,46.613072 C 35.992186,44.137934 34.183183,44.542687 32.372756,47.607497 C 31.380572,49.28713 30.248081,50.661376 29.856109,50.661376 C 29.464137,50.661376 28.584955,48.165836 27.902372,45.115732 z "
         style="fill:#c8c8c8" />
      <path
         id="path2335"
         d="M 44.817958,44.443418 C 45.351239,43.910137 46.622859,43.65087 47.64378,43.867269 C 49.018598,44.158682 48.767136,44.410144 46.674177,44.836872 C 44.849356,45.20893 44.191821,45.069555 44.817958,44.443418 z M 23.564293,42.954504 C 23.021608,41.529306 23.136472,41.414442 24.124088,42.394709 C 24.807506,43.073043 25.114759,43.87995 24.806872,44.187837 C 24.498985,44.495725 23.939824,43.940725 23.564293,42.954504 z M 55.351722,30.901295 C 55.715129,30.313291 55.447157,29.604288 54.756231,29.325734 C 53.857089,28.963235 53.838542,28.79683 54.690983,28.740323 C 56.411864,28.62625 57.238518,30.39593 55.861803,31.246786 C 55.163958,31.678078 54.957901,31.538511 55.351722,30.901295 z M 12,30.015134 C 12,29.476367 13.4625,27.713867 15.25,26.098467 L 18.5,23.161376 L 15.5,26.65638 C 13.85,28.578632 12.3875,30.341132 12.25,30.573047 C 12.1125,30.804961 12,30.5539 12,30.015134 z M 30.437091,11.411376 L 27.5,8.1613757 L 30.75,11.098467 C 33.779455,13.836248 34.459652,14.661376 33.687091,14.661376 C 33.514991,14.661376 32.052491,13.198876 30.437091,11.411376 z "
         style="fill:#b0b0b0" />
      <path
         id="path2333"
         d="M 25.027641,53.911376 C 23.782602,49.648876 22.430019,45.796846 22.0219,45.351308 C 21.613781,44.905771 18.516895,45.879642 15.139932,47.515465 C 11.76297,49.151288 9,50.388645 9,50.265146 C 9,50.141647 10.125,47.169951 11.5,43.661376 C 12.875,40.152801 14,36.926621 14,36.492086 C 14,36.057552 12.146864,34.756624 9.8819191,33.601136 L 5.7638383,31.500248 L 8.6840824,28.330812 C 14.611366,21.897738 14.564103,22.281739 10.142317,16.483052 C 7.929999,13.581841 6.209737,11.118306 6.3195122,11.00853 C 6.4292875,10.898755 9.4398053,11.434929 13.009552,12.200028 C 16.579298,12.965127 19.985578,13.606926 20.579063,13.626247 C 21.172547,13.645568 22.704399,11.427538 23.983178,8.6972904 L 26.308232,3.7332051 L 30.917209,7.5920591 L 35.526186,11.450913 L 38.506456,9.0745289 C 41.218897,6.9117043 41.548407,6.8537606 42.173078,8.4297602 C 42.550571,9.3821487 42.891058,11.398876 42.929715,12.911376 C 43.016191,16.294861 43.767689,16.319527 50.033244,13.14453 C 52.76496,11.760265 55,10.870146 55,11.166487 C 55,11.462829 53.676029,14.625246 52.057842,18.194081 L 49.115684,24.682872 L 52.749487,26.201172 C 54.748079,27.036237 57.42205,27.980184 58.691645,28.298832 C 59.96124,28.61748 60.990107,29.166908 60.978016,29.519784 C 60.965924,29.87266 58.941904,31.511376 56.480192,33.161376 C 54.018481,34.811376 52.003373,36.667197 52.002176,37.285423 C 52.000979,37.903649 53.101106,40.378649 54.446902,42.785423 L 56.893804,47.161376 L 52.078826,46.82376 L 47.263848,46.486144 L 44.94791,52.07376 C 43.674144,55.146949 42.30148,57.661376 41.897546,57.661376 C 41.493611,57.661376 40.189715,56.086376 39,54.161376 C 37.810285,52.236376 36.536083,50.67108 36.168441,50.682941 C 35.800798,50.694802 33.733816,53.169802 31.575147,56.182941 C 29.416478,59.19608 27.569531,61.661376 27.47082,61.661376 C 27.37211,61.661376 26.272679,58.173876 25.027641,53.911376 z M 32.374424,52.122045 L 35.840461,47.582714 L 37.635838,50.622045 C 38.623295,52.293677 39.763134,53.661376 40.168813,53.661376 C 40.574492,53.661376 41.802165,51.636376 42.896975,49.161376 C 44.786634,44.889489 45.094187,44.661376 48.964093,44.661376 L 53.040648,44.661376 L 51.020324,40.701214 C 49.909146,38.523125 49,36.50451 49,36.215403 C 49,35.926295 50.792619,34.503454 52.983597,33.053533 C 55.174576,31.603612 56.761168,30.083955 56.509358,29.676518 C 56.257548,29.269081 54.01493,28.365513 51.525761,27.668589 C 49.036592,26.971665 47,26.29093 47,26.155845 C 47,26.020761 48.125,23.366412 49.5,20.257293 C 50.875,17.148174 52,14.3846 52,14.116017 C 52,13.847434 49.76496,14.760265 47.033244,16.14453 C 44.301528,17.528795 41.826528,18.661376 41.533244,18.661376 C 41.23996,18.661376 41,16.830734 41,14.593282 L 41,10.525188 L 37.923825,12.715617 L 34.847651,14.906047 L 31.50439,11.665631 L 28.161128,8.425214 L 26.06024,12.543295 C 23.705265,17.159428 23.985741,17.066129 16.980217,15.563713 C 14.165193,14.959999 11.613795,14.714247 11.310444,15.017599 C 11.007092,15.320951 12.221946,17.416399 14.010119,19.674152 L 17.261342,23.779156 L 14.630671,26.524985 C 13.183802,28.035191 12,29.529096 12,29.844775 C 12,30.160453 13.35,30.977924 15,31.661376 C 16.65,32.344828 18,33.314382 18,33.81594 C 18,34.317498 16.875,36.947944 15.5,39.661376 C 14.125,42.374808 13,45.067429 13,45.644978 C 13,46.222527 15.234354,45.562835 17.96523,44.178995 C 23.721847,41.261897 23.608259,41.171287 26.404894,50.911376 C 27.312931,54.073876 28.247686,56.661376 28.482128,56.661376 C 28.71657,56.661376 30.468103,54.618677 32.374424,52.122045 z "
         style="fill:#898989" />
      <path
         id="path2331"
         d="M 9,27.161376 C 10.291745,25.786376 11.573628,24.661376 11.848628,24.661376 C 12.123628,24.661376 11.291745,25.786376 10,27.161376 C 8.7082546,28.536376 7.4263719,29.661376 7.1513719,29.661376 C 6.8763719,29.661376 7.7082546,28.536376 9,27.161376 z M 42.157895,7.6613757 C 42.157895,6.2863757 42.384868,5.7238757 42.662281,6.4113757 C 42.939693,7.0988757 42.939693,8.2238757 42.662281,8.9113757 C 42.384868,9.5988757 42.157895,9.0363757 42.157895,7.6613757 z M 28.404988,5.4113757 L 26.5,3.1613757 L 28.75,5.0663633 C 30.864445,6.8565815 31.455241,7.6613757 30.654988,7.6613757 C 30.465231,7.6613757 29.452731,6.6488757 28.404988,5.4113757 z "
         style="fill:#717171" />
      <path
         id="path2329"
         d="M 52.270833,47.057209 C 52.603125,46.724918 53.465625,46.689391 54.1875,46.978262 C 54.985233,47.297488 54.748276,47.534445 53.583333,47.582429 C 52.529167,47.62585 51.938542,47.389501 52.270833,47.057209 z M 5.5427051,31.730474 C 5.2262742,31.218478 5.3497166,30.563273 5.8170214,30.274463 C 6.2843263,29.985653 6.6666667,30.404558 6.6666667,31.205365 C 6.6666667,32.891532 6.3513296,33.038856 5.5427051,31.730474 z "
         style="fill:#505050" />
      <path
         id="path2327"
         d="M 49.270833,47.057209 C 49.603125,46.724918 50.465625,46.689391 51.1875,46.978262 C 51.985233,47.297488 51.748276,47.534445 50.583333,47.582429 C 49.529167,47.62585 48.938542,47.389501 49.270833,47.057209 z M 10.5,24.661376 C 11.495486,23.561376 12.534975,22.661376 12.809975,22.661376 C 13.084975,22.661376 12.495486,23.561376 11.5,24.661376 C 10.504514,25.761376 9.4650249,26.661376 9.1900249,26.661376 C 8.9150249,26.661376 9.5045137,25.761376 10.5,24.661376 z M 43,14.661376 C 43,13.379991 43.708061,13.379991 44.5,14.661376 C 44.839919,15.211376 44.641476,15.661376 44.059017,15.661376 C 43.476558,15.661376 43,15.211376 43,14.661376 z M 31.924314,7.9113757 L 29.5,5.1613757 L 32.25,7.5856897 C 33.7625,8.9190624 35,10.156563 35,10.33569 C 35,11.119964 34.190201,10.481665 31.924314,7.9113757 z "
         style="fill:#2e2e2e" />
      <path
         id="path2325"
         d="M 0,31.661376 L 0,-0.33862433 L 32,-0.33862433 L 64,-0.33862433 L 64,31.661376 L 64,63.661376 L 32,63.661376 L 0,63.661376 L 0,31.661376 z M 32.002204,57.042232 L 36.2447,51.423087 L 38.87235,55.535035 C 40.317557,57.796606 41.758071,59.650221 42.07349,59.654179 C 42.38891,59.658137 43.791176,56.872121 45.189638,53.463031 L 47.732294,47.264687 L 53.007687,47.544683 L 58.283079,47.824679 L 55.239459,42.431679 L 52.195838,37.038679 L 57.163131,33.64902 C 59.895142,31.784708 62.329299,29.937575 62.572369,29.544281 C 62.815438,29.150986 60.110476,27.862865 56.561341,26.681789 L 50.108369,24.534378 L 53.497291,17.097877 C 55.361199,13.007801 56.446856,9.6613757 55.909863,9.6613757 C 55.37287,9.6613757 52.6816,10.802506 49.929263,12.197221 C 47.176926,13.591936 44.491886,14.465378 43.962507,14.138204 C 43.433128,13.81103 43,11.7699 43,9.6023587 C 43,7.4348181 42.704976,5.6613757 42.344391,5.6613757 C 41.983806,5.6613757 40.211474,6.788173 38.405876,8.1653697 C 36.600278,9.5425665 34.864058,10.250434 34.547609,9.7384087 C 34.23116,9.2263835 32.197575,7.4018871 30.028531,5.6839723 L 26.084814,2.5604909 L 23.525561,7.6109333 C 22.117972,10.388677 20.500221,12.661376 19.93056,12.661376 C 19.360898,12.661376 15.736762,11.943093 11.876923,11.065191 C 8.0170852,10.18729 4.6872451,9.6407972 4.4772787,9.8507637 C 4.2673123,10.06073 6.1381363,12.807353 8.6346655,15.95437 L 13.173809,21.676219 L 9.0869047,26.557578 C 6.8391071,29.242325 5,31.645642 5,31.898282 C 5,32.150922 6.8,33.169314 9,34.161376 C 11.2,35.153438 13,36.355723 13,36.833121 C 13,37.310519 11.875,40.469759 10.5,43.853655 C 9.125,47.23755 8,50.350387 8,50.771069 C 8,51.191751 10.915119,50.214167 14.478043,48.598661 C 18.040966,46.983154 21.13936,45.661376 21.363363,45.661376 C 21.587365,45.661376 22.826049,49.486376 24.115993,54.161376 C 25.405937,58.836376 26.753478,62.661376 27.110528,62.661376 C 27.467578,62.661376 29.668832,60.132761 32.002204,57.042232 z "
         style="fill:#000000" />
    </g>
  </g>
</svg>
