<?xml version="1.0" encoding="UTF-8" standalone="no"?>
<!-- Created with Inkscape (http://www.inkscape.org/) -->
<svg
   xmlns:dc="http://purl.org/dc/elements/1.1/"
   xmlns:cc="http://web.resource.org/cc/"
   xmlns:rdf="http://www.w3.org/1999/02/22-rdf-syntax-ns#"
   xmlns:svg="http://www.w3.org/2000/svg"
   xmlns="http://www.w3.org/2000/svg"
   xmlns:xlink="http://www.w3.org/1999/xlink"
   xmlns:sodipodi="http://sodipodi.sourceforge.net/DTD/sodipodi-0.dtd"
   xmlns:inkscape="http://www.inkscape.org/namespaces/inkscape"
   width="744.09448819"
   height="1052.3622047"
   id="svg2862"
   sodipodi:version="0.32"
   inkscape:version="0.45.1"
   sodipodi:docbase="C:\Documents and Settings\Pentium1\Desktop\gz"
   sodipodi:docname="hitglow2.svg"
   inkscape:output_extension="org.inkscape.output.svg.inkscape">
  <defs
     id="defs2864">
    <linearGradient
       id="linearGradient2806">
      <stop
         style="stop-color:white;stop-opacity:1;"
         offset="0"
         id="stop2808" />
      <stop
         id="stop2816"
         offset="0.60000002"
         style="stop-color:white;stop-opacity:0.49803922;" />
      <stop
         style="stop-color:white;stop-opacity:0;"
         offset="1"
         id="stop2810" />
    </linearGradient>
    <linearGradient
       id="linearGradient2781">
      <stop
         style="stop-color:#3287ff;stop-opacity:1;"
         offset="0"
         id="stop2783" />
      <stop
         id="stop2792"
         offset="0.31914893"
         style="stop-color:white;stop-opacity:0.49803922;" />
      <stop
         style="stop-color:white;stop-opacity:0;"
         offset="1"
         id="stop2785" />
    </linearGradient>
    <linearGradient
       id="linearGradient2872">
      <stop
         style="stop-color:white;stop-opacity:1;"
         offset="0"
         id="stop2874" />
      <stop
         style="stop-color:white;stop-opacity:0.18039216;"
         offset="0.73113859"
         id="stop2798" />
      <stop
         style="stop-color:white;stop-opacity:0;"
         offset="1"
         id="stop2876" />
    </linearGradient>
    <radialGradient
       inkscape:collect="always"
       xlink:href="#linearGradient2872"
       id="radialGradient2907"
       gradientUnits="userSpaceOnUse"
       gradientTransform="matrix(0.412456,0,0,0.39535,2.945045,-5.298486)"
       cx="0.71427917"
       cy="13.790756"
       fx="0.71427917"
       fy="13.790756"
       r="155" />
    <radialGradient
       inkscape:collect="always"
       xlink:href="#linearGradient2781"
       id="radialGradient2789"
       cx="-39.469234"
       cy="-36.71273"
       fx="-39.469234"
       fy="-36.71273"
       r="53.141541"
       gradientTransform="matrix(1,0,0,1.012237,0,0.449269)"
       gradientUnits="userSpaceOnUse" />
    <radialGradient
       inkscape:collect="always"
       xlink:href="#linearGradient2872"
       id="radialGradient2794"
       gradientUnits="userSpaceOnUse"
       gradientTransform="matrix(0.412456,0,0,0.39535,2.945045,-5.298486)"
       cx="0.71427917"
       cy="13.790756"
       fx="0.71427917"
       fy="13.790756"
       r="155" />
    <radialGradient
       inkscape:collect="always"
       xlink:href="#linearGradient2806"
       id="radialGradient2814"
       cx="-5.3935223"
       cy="-8.1289959"
       fx="-5.3935223"
       fy="-8.1289959"
       r="29.265121"
       gradientTransform="matrix(1,0,0,1.010271,0,8.349151e-2)"
       gradientUnits="userSpaceOnUse" />
  </defs>
  <sodipodi:namedview
     id="base"
     pagecolor="black"
     bordercolor="#666666"
     borderopacity="1.0"
     gridtolerance="10000"
     guidetolerance="10"
     objecttolerance="10"
     inkscape:pageopacity="0"
     inkscape:pageshadow="2"
     inkscape:zoom="1.4"
     inkscape:cx="147.80872"
     inkscape:cy="960.05643"
     inkscape:document-units="px"
     inkscape:current-layer="layer1"
     inkscape:window-width="1280"
     inkscape:window-height="1005"
     inkscape:window-x="-4"
     inkscape:window-y="-4" />
  <metadata
     id="metadata2867">
    <rdf:RDF>
      <cc:Work
         rdf:about="">
        <dc:format>image/svg+xml</dc:format>
        <dc:type
           rdf:resource="http://purl.org/dc/dcmitype/StillImage" />
      </cc:Work>
    </rdf:RDF>
  </metadata>
  <g
     inkscape:label="Layer 1"
     inkscape:groupmode="layer"
     id="layer1">
    <path
       style="fill:url(#radialGradient2794);fill-opacity:1;stroke:none;stroke-width:7.8210001;stroke-miterlimit:4;stroke-dasharray:none;stroke-opacity:1"
       d="M -60.691125,-61.125583 L 67.170448,-61.125583 L 67.170448,61.432968 L -60.691125,61.432968 L -60.691125,-61.125583 z "
       id="rect2870" />
    <path
       sodipodi:type="star"
       style="opacity:1;color:black;fill:url(#radialGradient2814);fill-opacity:1;fill-rule:nonzero;stroke:white;stroke-width:6.00899982;stroke-linecap:butt;stroke-linejoin:round;marker:none;marker-start:none;marker-mid:none;marker-end:none;stroke-miterlimit:4;stroke-dasharray:none;stroke-dashoffset:0;stroke-opacity:0.15642458;visibility:visible;display:inline;overflow:visible"
       id="path2804"
       sodipodi:sides="5"
       sodipodi:cx="-3.5714285"
       sodipodi:cy="-6.9235244"
       sodipodi:r1="31.331017"
       sodipodi:r2="12.219097"
       sodipodi:arg1="0.75315128"
       sodipodi:arg2="1.3814698"
       inkscape:flatsided="false"
       inkscape:rounded="1.0408341e-17"
       inkscape:randomized="0"
       d="M 19.285714,14.505046 L -1.271825,5.0772322 L -16.887965,21.436702 L -14.27421,-1.0280337 L -34.658643,-10.824511 L -12.485715,-15.280667 L -9.4678472,-37.694693 L 1.6220209,-17.984013 L 23.871599,-22.040166 L 8.5525858,-5.4021396 L 19.285714,14.505046 z "
       transform="matrix(1.535226,0,0,1.535226,7.172468,12.92228)" />
    <path
       id="path2446"
       d="M -61.285716,-6.9235443 L -61.285716,-78.209245 L 10.000004,-78.209245 L 81.285704,-78.209245 L 81.285704,-6.9235443 L 81.285704,64.362186 L 10.000004,64.362186 L -61.285716,64.362186 L -61.285716,-6.9235443 z M 53.439724,40.097666 C 60.791064,36.555906 68.810704,31.998396 71.261144,29.969906 C 75.588084,26.387996 75.523894,26.313306 69.033474,27.378176 C 65.357804,27.981256 58.841844,29.156196 54.553564,29.989166 C 46.820214,31.491316 46.789994,31.466496 50.845764,26.940826 C 53.094774,24.431246 58.877064,19.646026 63.695294,16.307006 C 68.513514,12.967966 72.094864,9.8751957 71.653844,9.4341657 C 71.212844,8.9931457 63.676244,11.591356 54.905914,15.207946 C 46.135574,18.824536 38.959814,20.910646 38.959814,19.843716 C 38.959814,18.776766 41.904704,9.5819657 45.503984,-0.58919429 C 49.103284,-10.760364 51.834844,-19.295558 51.574114,-19.55629 C 51.313374,-19.817023 45.876524,-10.815974 39.492194,0.44605571 C 25.930174,24.369586 26.148594,25.082586 31.141194,-26.815354 C 32.959804,-45.719817 34.136064,-61.498776 33.755084,-61.879753 C 33.374144,-62.260732 29.142734,-44.537924 24.351974,-22.495751 C 19.561214,-0.45359429 15.002404,17.580906 14.221264,17.580906 C 13.440144,17.580906 11.537604,8.0351957 9.9934343,-3.6318043 C 8.4492243,-15.298794 6.3153343,-25.382516 5.2513843,-26.040055 C 4.1874543,-26.697604 3.3169543,-17.151864 3.3169543,-4.8273443 C 3.3169543,7.4971957 2.5651243,17.556766 1.6462043,17.527226 C 0.72728429,17.497716 -4.9743057,1.9806557 -11.024016,-16.955074 C -17.073736,-35.89081 -22.377336,-51.029822 -22.809816,-50.597337 C -23.242306,-50.164867 -21.008336,-34.520075 -17.845456,-15.831164 C -14.682566,2.8577357 -12.436266,19.173226 -12.853686,20.425486 C -13.271106,21.677726 -16.949606,17.502056 -21.028166,11.146186 C -25.106696,4.7903457 -28.884906,0.031305714 -29.424176,0.57057571 C -29.963426,1.1098157 -29.335876,7.3324157 -28.029656,14.398516 C -26.723416,21.464626 -26.008966,27.600296 -26.441986,28.033336 C -26.875026,28.466346 -34.140156,25.784236 -42.586766,22.073026 L -57.944196,15.325396 L -45.691966,26.601376 C -24.071946,46.498696 -24.003396,46.523226 10.000004,46.530646 C 38.601584,46.536906 40.727924,46.222016 53.439724,40.097666 z "
       style="fill:#000000" />
  </g>
</svg>
